HIERARCHY
ROOT Hips
{
  OFFSET 90.7885 88.945 -76.2838
  CHANNELS 6 Xposition Yposition Zposition Zrotation Xrotation Yrotation
  JOINT LeftUpLeg
  {
    OFFSET 8.64259 1.95398 -2.38835
    CHANNELS 3 Zrotation Xrotation Yrotation
    JOINT LeftLeg
    {
      OFFSET 43.7702 0 0
      CHANNELS 3 Zrotation Xrotation Yrotation
      JOINT LeftFoot
      {
        OFFSET 40.6238 0 0
        CHANNELS 3 Zrotation Xrotation Yrotation
        JOINT LeftToeBase
        {
          OFFSET 12.7242 0 0
          CHANNELS 3 Zrotation Xrotation Yrotation
          End Site
          {
            OFFSET 0 0 0
          }
        }
      }
    }
  }
  JOINT RightUpLeg
  {
    OFFSET -8.2249 1.95398 -2.59336
    CHANNELS 3 Zrotation Xrotation Yrotation
    JOINT RightLeg
    {
      OFFSET 43.5653 0 0
      CHANNELS 3 Zrotation Xrotation Yrotation
      JOINT RightFoot
      {
        OFFSET 40.6238 0 0
        CHANNELS 3 Zrotation Xrotation Yrotation
        JOINT RightToeBase
        {
          OFFSET 12.7242 0 0
          CHANNELS 3 Zrotation Xrotation Yrotation
          End Site
          {
            OFFSET 0 0 0
          }
        }
      }
    }
  }
  JOINT Spine
  {
    OFFSET 0.165834 0.87714 6.61349
    CHANNELS 3 Zrotation Xrotation Yrotation
    JOINT Spine1
    {
      OFFSET 7.38963 1.71661e-005 0
      CHANNELS 3 Zrotation Xrotation Yrotation
      JOINT Spine2
      {
        OFFSET 11.9445 1.14441e-005 0
        CHANNELS 3 Zrotation Xrotation Yrotation
        JOINT Spine3
        {
          OFFSET 14.7254 4.19617e-005 0
          CHANNELS 3 Zrotation Xrotation Yrotation
          JOINT Spine4
          {
            OFFSET 10.9679 0 0
            CHANNELS 3 Zrotation Xrotation Yrotation
            JOINT RightShoulder
            {
              OFFSET 2.46616 -1.6653 3.69651
              CHANNELS 3 Zrotation Xrotation Yrotation
              JOINT RightArm
              {
                OFFSET 13.0012 0 0
                CHANNELS 3 Zrotation Xrotation Yrotation
                JOINT RightForeArm
                {
                  OFFSET 28.7848 1.52588e-005 0
                  CHANNELS 3 Zrotation Xrotation Yrotation
                  JOINT RightHand
                  {
                    OFFSET 26.5688 1.52588e-005 0
                    CHANNELS 3 Zrotation Xrotation Yrotation
                    End Site
                    {
                      OFFSET 0 0 0
                    }
                  }
                }
              }
            }
            JOINT LeftShoulder
            {
              OFFSET 2.38034 -1.29275 -3.7523
              CHANNELS 3 Zrotation Xrotation Yrotation
              JOINT LeftArm
              {
                OFFSET 16.3182 6.10352e-005 0
                CHANNELS 3 Zrotation Xrotation Yrotation
                JOINT LeftForeArm
                {
                  OFFSET 27.0901 0 0
                  CHANNELS 3 Zrotation Xrotation Yrotation
                  JOINT LeftHand
                  {
                    OFFSET 24.5451 1.52588e-005 0
                    CHANNELS 3 Zrotation Xrotation Yrotation
                    End Site
                    {
                      OFFSET 0 0 0
                    }
                  }
                }
              }
            }
            JOINT Neck
            {
              OFFSET 5.0226 -0.0266342 0
              CHANNELS 3 Zrotation Xrotation Yrotation
              JOINT Head
              {
                OFFSET 6.69363 2.86102e-005 0
                CHANNELS 3 Zrotation Xrotation Yrotation
                End Site
                {
                  OFFSET 0 0 0
                }
              }
            }
          }
        }
      }
    }
  }
}
MOTION
Frames:	12
Frame Time:	0.0416667
7.76296 99.3916 26.2571 -141.356 -83.8274 -141.834 -177.204 -3.0717 90.6223 -12.3281 3.7635 0.0996445 71.6414 4.79806 -0.181752 17.8702 -0.0789355 1.82631 169.505 -2.63492 85.6943 -12.6448 -15.2579 -1.2364 69.3444 -4.95899 2.48391 25.202 -0.884093 2.70981 0.12405 7.42501 -90.052 12.024 0.222146 -0.12801 0.353057 0.216298 -0.13768 -22.1822 0.250344 -0.0553287 -2.1696 0.250346 -0.0553397 90.1234 -31.4358 -105.981 40.4614 -19.9831 -7.84319 2.78362 -26.3132 -16.5184 -24.7326 -0.902025 -7.10774 -86.5572 -54.1555 84.519 -20.2705 25.1311 -14.4767 2.54576 6.62829 -11.5542 1.04294 0.0217936 -0.603846 9.64069 0.198641 -1.00242 -9.54331 0.279335 2.10632 
7.759 99.3677 26.2481 -139.926 -83.767 -140.356 -177.453 -3.17263 90.4924 -12.2269 2.92606 0.395878 72.7251 5.06347 -2.0601 15.1587 -2.96196 5.53587 169.747 -2.38011 85.8179 -12.9109 -16.7299 -1.43826 68.6272 -4.65503 1.72816 25.4538 -0.623245 2.10174 0.212978 7.40722 -90.1084 12.0598 0.372269 -0.256911 0.388911 0.360603 -0.273051 -22.1466 0.432265 -0.133151 -2.13394 0.432268 -0.133154 90.5806 -30.9125 -105.277 40.5548 -20.5971 -7.08837 3.83596 -28.4138 -17.9128 -27.379 -1.46253 -4.75372 -87.2632 -55.1011 83.651 -19.35 25.3638 -14.9393 2.11492 6.35712 -10.9653 1.90875 0.0586328 -0.339295 8.99131 0.176765 -0.269637 -8.61761 0.147416 1.47391 
7.76288 99.3499 26.194 -134.885 -83.5901 -135.069 -177.297 -2.78452 90.7372 -12.5233 2.58085 0.238083 73.0217 5.06709 -1.91142 15.2972 -3.02465 5.5842 170.118 -2.16392 86.2022 -12.8387 -16.8587 -1.59038 68.8257 -4.82305 1.1547 24.7058 -1.23946 3.53656 0.322155 7.37647 -90.1669 12.1219 0.561508 -0.395138 0.451013 0.543569 -0.419475 -22.085 0.654305 -0.20811 -2.07231 0.654295 -0.20812 90.9335 -30.6215 -104.685 40.8688 -20.018 -7.66832 3.12854 -28.4736 -16.3336 -25.0323 -1.44381 -4.70037 -87.7264 -55.4562 83.0495 -19.2925 24.8978 -15.097 2.05616 6.45009 -10.3861 4.35375 0.173634 0.0822962 8.53003 -0.0810763 -0.193784 -8.22428 -0.143384 1.92985 
7.78427 99.3518 26.0889 -135.405 -83.6289 -135.731 -177.292 -2.72561 90.6433 -12.5855 2.74875 0.15613 72.9783 5.04815 -1.85768 15.002 -2.7027 5.23459 170.053 -2.02564 86.0679 -12.9423 -16.8813 -1.59911 68.8278 -4.80944 1.31449 24.9672 -1.00479 3.00091 0.306562 7.38017 -90.1611 12.1144 0.533328 -0.380244 0.44352 0.516067 -0.403352 -22.0923 0.622937 -0.202375 -2.0797 0.62294 -0.202384 90.8648 -30.5086 -104.86 40.8572 -20.1391 -7.57017 3.82881 -28.3552 -15.9376 -25.6238 -1.38365 -5.02634 -87.692 -55.6088 83.1227 -18.9663 24.9048 -15.043 1.96772 6.37649 -10.5314 8.38574 0.506156 1.9631 8.74548 0.0441508 0.13761 -8.75246 -0.0705279 1.42124 
7.8167 99.3541 26.0565 -135.399 -83.5085 -135.757 -177.356 -2.85137 90.5468 -12.4878 2.69398 0.206713 72.9373 5.05615 -1.65182 14.9287 -2.66313 5.1952 170.161 -1.84655 86.0404 -13.5112 -16.5755 -1.74386 68.4522 -4.48452 2.54427 25.9062 -0.319661 1.34983 0.316252 7.38821 -90.1697 12.0984 0.548583 -0.398899 0.427476 0.530496 -0.422661 -22.1084 0.643101 -0.215575 -2.09578 0.643098 -0.215587 90.8611 -30.3256 -104.933 41.0208 -20.0712 -7.47073 3.99535 -28.0566 -15.8062 -25.3044 -1.30935 -5.32095 -87.7723 -55.6537 83.0163 -18.8164 24.7503 -15.098 1.76569 6.44358 -10.3224 13.455 1.04779 3.80537 8.89983 0.0480463 0.244001 -9.08198 -0.0834299 1.25097 
7.8877 99.3427 26.0285 -135.504 -83.6166 -135.88 -177.449 -2.68227 90.4774 -12.706 2.49093 0.298341 73.1746 5.07717 -2.21042 14.5956 -2.86769 5.45586 170.021 -1.81925 85.9721 -13.392 -16.9352 -1.62957 68.8394 -4.76034 1.28206 25.8105 -0.711018 2.22701 0.28462 7.3517 -90.1573 12.1713 0.491333 -0.368464 0.500365 0.474647 -0.389739 -22.0354 0.579354 -0.203758 -2.02273 0.579357 -0.203764 90.6907 -30.2947 -105.281 41.2515 -20.1249 -7.12215 3.9153 -28.0722 -16.4956 -25.937 -1.35891 -5.10918 -87.581 -55.2333 83.2204 -19.505 24.0581 -14.5859 1.86245 6.9104 -10.3062 18.5701 1.79762 5.81849 8.48323 0.059507 -0.0865168 -8.91543 -0.0197658 1.5939 
7.86435 99.3431 26.0305 -133.417 -83.5622 -133.485 -177.253 -2.40607 90.8143 -12.9369 2.57367 0.191506 73.0958 5.03106 -1.86729 15.1812 -2.88225 5.42969 170.232 -1.85808 86.2986 -13.1473 -16.7603 -1.6238 68.8135 -4.734 1.67113 24.9052 -0.754611 2.4811 0.29482 7.33857 -90.1926 12.1977 0.494853 -0.439488 0.526743 0.475037 -0.460846 -22.0089 0.604057 -0.270445 -1.99625 0.604057 -0.270448 90.5762 -30.2715 -105.516 41.3108 -19.7716 -7.11339 3.20228 -27.8733 -16.3627 -24.2586 -1.31866 -5.16318 -87.4809 -55.21 83.3587 -19.7631 23.1447 -14.4607 2.00153 8.04926 -10.2253 23.7306 2.71059 7.66338 8.38814 0.044472 -0.10187 -8.79012 -0.0330329 1.65228 
7.7753 99.3503 25.9626 -132.154 -83.678 -132.303 -177.24 -2.18079 90.8419 -12.9302 2.56832 0.134998 73.0908 5.03882 -1.9654 14.9083 -2.64489 5.1765 170.368 -1.59172 86.3895 -13.2006 -16.6985 -1.6901 68.2892 -4.46205 2.10544 25.739 -0.466064 1.70477 0.298868 7.32703 -90.1859 12.2207 0.505976 -0.427578 0.549822 0.486665 -0.449442 -21.9859 0.611084 -0.255742 -1.97323 0.611088 -0.255741 90.6453 -30.3419 -105.354 41.1048 -19.9939 -7.17971 3.96824 -27.998 -15.7605 -24.8417 -1.27198 -5.48006 -87.5462 -55.0389 83.2393 -19.8169 22.6699 -14.6625 1.79489 8.82622 -9.89623 28.3049 3.56073 8.8852 8.79475 0.0319423 -0.0706235 -9.32498 -0.0599948 1.6556 
7.80906 99.3444 26.0618 -133.512 -83.495 -133.734 -177.438 -2.56321 90.6269 -12.8226 1.85357 0.346618 73.0983 4.95366 -2.36957 15.1545 -2.1801 4.61808 170.157 -1.98322 86.1567 -12.9906 -16.6047 -1.65051 69.5156 -5.0864 1.5973 23.9964 -0.846109 2.822 0.302055 7.35037 -90.1809 12.1741 0.514828 -0.418173 0.503144 0.495921 -0.440431 -22.0326 0.616703 -0.244115 -2.01996 0.616701 -0.244121 90.7361 -30.2626 -105.203 41.2431 -20.1169 -7.15722 3.93425 -28.1664 -16.4754 -25.4805 -1.43801 -4.66689 -87.704 -54.8817 82.9898 -19.9971 22.2191 -14.6096 1.69161 9.60889 -9.68562 31.6827 4.18707 9.53449 8.54212 -0.102451 -0.272835 -8.93079 -0.176122 2.2022 
7.78806 99.3345 26.0873 -132.56 -83.573 -132.925 -177.512 -2.55775 90.4799 -12.6154 2.05568 0.347251 73.0055 4.98552 -2.25821 15.4462 -2.78082 5.29159 170.136 -1.7347 86.0648 -13.1192 -16.9916 -1.66275 68.5179 -4.5718 2.05605 25.7878 -0.375318 1.48673 0.304517 7.3383 -90.1822 12.1982 0.519046 -0.421527 0.527267 0.499994 -0.443971 -22.0085 0.621734 -0.246049 -1.99584 0.62174 -0.246041 90.7571 -30.2518 -105.165 41.1669 -20.0816 -7.17615 3.44525 -27.7975 -16.5245 -25.1799 -1.37951 -4.8661 -87.7666 -55.1959 82.9512 -19.601 22.1774 -14.7224 1.45687 9.48734 -9.52001 33.0661 4.51087 9.9639 8.5844 0.0375588 -0.0311162 -8.88723 -0.0875042 2.17526 
7.75458 99.3375 26.1555 -133.918 -83.6527 -134.376 -177.458 -2.69927 90.4523 -12.4241 2.30368 0.249528 72.8089 4.9863 -2.13538 15.7956 -3.05368 5.58493 169.911 -1.81979 85.883 -13.1834 -16.8985 -1.54123 69.0364 -4.8374 1.63581 24.8524 -0.880357 2.75621 0.291318 7.34515 -90.1784 12.1844 0.494685 -0.410964 0.513493 0.476108 -0.432343 -22.0222 0.595318 -0.243288 -2.00955 0.595312 -0.2433 90.7385 -30.3485 -105.167 41.0691 -20.0862 -7.11733 3.46261 -28.0922 -16.4888 -25.7366 -1.46131 -4.56352 -87.7779 -55.3371 82.9578 -19.342 22.4666 -14.6473 1.42867 9.44928 -9.82036 32.6767 4.54468 10.2447 8.94638 -0.0050737 0.166695 -9.53054 -0.149919 1.64261 
7.66426 99.3842 26.1738 -134.606 -83.6954 -135.021 -177.265 -2.80834 90.6532 -12.2996 2.69117 0.104879 72.8772 5.08436 -2.00495 15.088 -2.86035 5.41203 170.06 -1.92732 86.0569 -13.1921 -16.6242 -1.62263 68.8719 -4.74732 1.8034 24.6657 -0.753512 2.51658 0.296544 7.34428 -90.1777 12.1862 0.505351 -0.410795 0.515267 0.486783 -0.432646 -22.0205 0.605454 -0.239922 -2.00781 0.605446 -0.239932 90.6849 -30.548 -105.202 40.9319 -20.116 -7.03436 3.73358 -28.4875 -16.0401 -25.7869 -1.36224 -5.20822 -87.7759 -55.1194 82.9256 -19.4446 22.9381 -14.6773 1.40672 8.7429 -9.67807 29.8166 3.83331 9.1818 8.79252 -0.135673 -0.0983251 -9.36904 -0.225406 1.75634 
